<svg xmlns="http://www.w3.org/2000/svg" version="1.1" xmlns:xlink="http://www.w3.org/1999/xlink" xmlns:svgjs="http://svgjs.dev/svgjs" width="100%" height="100%" viewBox="0 0 1000 600"><rect width="1000" height="600" x="0" y="0" fill="#295f2d"/><g><rect width="333.3333333333333" height="333.3333333333333" y="247.47099236980984" fill="#ffe67c" transform="matrix(0.5549419302550694,0,0,0.5549419302550695,0,70.17763116749781)" x="225.24879455566403"/><path d="M476.878500700111 339.1376628223775L476.878500700111 339.1376628223775Q483.920050646773 339.1376628223775 483.920050646773 343.99183767922534L483.920050646773 343.99183767922534Q483.920050646773 350.40414273703675 474.1517728484248 363.58832136057424L474.1517728484248 363.58832136057424Q466.2412656743023 374.105700217078 451.49895684980135 377.7013852962246L451.49895684980135 377.7013852962246Q447.0642785855205 378.86998294694723 443.4386294640478 378.86998294694723Q439.78301630024873 378.86998294694723 435.5880503745777 378.3306301850752L435.5880503745777 378.3306301850752Q424.7410670524855 376.952284238069 408.4106639846948 376.53278764550197L408.4106639846948 376.53278764550197Q395.55608982674573 399.30545981343033 389.44342519219657 411.29107674391895L389.44342519219657 411.29107674391895L405.7738282599873 410.8715801513518Q410.7178952438138 411.08132844763537 417.8793013597808 410.362191431806L417.8793013597808 410.362191431806L428.42664425861074 409.403342077367Q431.572868702864 409.07373761177854 432.6216101842818 408.9838454847999L432.6216101842818 408.9838454847999Q436.9663963215839 408.5643488922328 438.0151378030016 410.1524431355225L438.0151378030016 410.1524431355225Q439.99276459653225 412.99902715651353 439.99276459653225 416.77449648961743Q439.99276459653225 420.57992986504763 439.48337587698654 423.2467296320813Q438.94402311511453 425.94349344144126 438.0151378030016 428.3705808698652L438.0151378030016 428.3705808698652Q435.8876907978399 433.7341444462589 433.2508550731324 435.8316274090943L433.2508550731324 435.8316274090943Q427.58765107347654 440.38616184268 414.31358032296043 440.38616184268L414.31358032296043 440.38616184268Q411.7666367252316 440.38616184268 409.4594054661125 440.1764135463965L409.4594054661125 440.1764135463965L377.33795209240304 437.62946994866763Q369.217696621997 456.92631320675434 364.57327006143265 475.2343430680757L364.57327006143265 475.2343430680757Q361.00754902461233 489.1376587074425 337.5157398408546 489.1376587074425L337.5157398408546 489.1376587074425Q318.1290044557893 489.1376587074425 312.76544087939567 480.08851792492356L312.76544087939567 480.08851792492356Q310.96759833982236 477.03218560764896 311.38709493238946 474.3054577559628Q311.80659152495656 471.5487658619504 313.42464981057253 468.1328650367612Q315.0726721385147 464.7169642115719 317.79939999020087 459.65304105844046L317.79939999020087 459.65304105844046L332.7814211533116 434.0637489118473Q332.3619245607445 434.0637489118473 329.9648011746468 433.85400061556373Q327.5976418308753 433.64425231928016 326.4590082224789 433.3146478536917L326.4590082224789 433.3146478536917Q323.61242420148784 432.35579849925267 321.81458166191453 429.8388189438501Q320.0167391223413 427.3218393884475 320.0167391223413 424.56514749443505L320.0167391223413 424.56514749443505Q320.0167391223413 419.2015839180414 323.19292760892074 416.47485606635524Q326.339152053174 413.7181641723429 329.75505287836324 413.2986675797758Q333.2009177458787 412.8791709872087 337.1861353752662 412.78927886023L337.1861353752662 412.78927886023L346.0554919038278 412.57953056394643Q362.26603880231363 387.37977096759414 369.5473010875854 376.952284238069L369.5473010875854 376.952284238069Q343.41865617912026 378.86998294694723 324.1218129210336 389.2974696764723L324.1218129210336 389.2974696764723Q318.75824934464 392.23394582444206 315.43224064642936 395.0805298454331Q312.136195990545 397.9271138664241 309.7990006890997 397.9271138664241Q307.49176942998065 397.9271138664241 305.8437471020385 397.237940892921Q304.2256888164225 396.5487679194179 302.8473428694163 395.3801702686953L302.8473428694163 395.3801702686953Q299.9108667214466 392.773298586314 299.9108667214466 389.657038184387Q299.9108667214466 386.54077778245994 301.588853091715 383.90394205775243L301.588853091715 383.90394205775243Q321.6947254926097 352.8312301654607 346.4749884963949 345.8795723457773L346.4749884963949 345.8795723457773Q355.19452481332536 343.4524849173534 365.62201154285043 343.4524849173534L365.62201154285043 343.4524849173534Q409.0399088735454 343.4524849173534 434.5692729354862 342.4037434359356Q460.12860103975316 341.3550019545179 462.4358322988722 341.0253974889294L462.4358322988722 341.0253974889294L472.23407413954664 339.5571594149446Q474.6611615679706 339.1376628223775 476.878500700111 339.1376628223775Z " fill="#295f2d" transform="matrix(0.5549419302550694,0,0,0.5549419302550695,0,70.17763116749781)"/><path d="M648.328725717969 479.79313320897705L648.328725717969 479.79313320897705Q646.7035903213606 477.03040303474296 647.1369597604561 474.40310081022614Q647.5703291995517 471.8028841756529 649.655919625199 467.5504465545278Q651.7415100508464 463.3250945233462 655.3709791032715 456.9328952966868L655.3709791032715 456.9328952966868L663.7404263958043 442.6587893964772L674.0329505743235 425.7032100918638L685.652668660073 407.42043688002036L697.8411841346353 389.1376636681769Q674.8996894525147 394.85272314624945 662.7924307477828 402.7617154097432L662.7924307477828 402.7617154097432Q660.7880970919658 404.08890931697334 659.3796464149053 405.52444558397735L659.3796464149053 405.52444558397735L656.1293756216888 408.7476307872505Q653.1770463178503 411.69996009108894 650.3330593737858 411.69996009108894Q647.4619868397778 411.69996009108894 645.8910226230564 410.9957347525587Q644.3200584063351 410.2915094140284 643.3720627583135 409.1268290464591L643.3720627583135 409.1268290464591Q640.988530843288 406.364098872225 642.5053238801224 403.03257130917797L642.5053238801224 403.03257130917797Q646.5952479615867 389.8960601865941 654.2333843256457 376.19075167519736L654.2333843256457 376.19075167519736Q658.4045651769403 368.5797009010818 660.8964394517399 367.44210612345597L660.8964394517399 367.44210612345597Q678.989613533979 359.61437062979263 736.3027218543654 356.09324393714127L736.3027218543654 356.09324393714127Q754.9646933254173 354.9556491595155 775.549741682456 354.9556491595155L775.549741682456 354.9556491595155Q788.9571087044744 354.9556491595155 801.0643674092064 364.57103358944795L801.0643674092064 364.57103358944795Q814.5800767909989 375.51361192661057 814.5800767909989 392.00873620218493L814.5800767909989 392.00873620218493Q814.5800767909989 413.51469461730153 777.6353321081033 432.74546347716654L777.6353321081033 432.74546347716654Q757.1586261108387 443.52552827466826 739.1737943883734 447.80505148573684L739.1737943883734 447.80505148573684Q734.4879873281527 448.83430390358876 731.9690274634098 448.83430390358876Q729.4500675986669 448.83430390358876 726.2539679853372 448.1842497449455Q723.0849539619511 447.5071099963587 720.5118229173212 446.2882584489024L720.5118229173212 446.2882584489024Q714.41756518004 443.2275867852901 714.41756518004 438.9480635742215L714.41756518004 438.9480635742215Q714.41756518004 432.85380583694035 726.11854003562 426.56994897005495L726.11854003562 426.56994897005495L746.5952460328847 415.5190282731184Q764.7696768849542 405.79530148341206 769.0762856859662 401.4345215025131Q773.3558088970346 397.04665593167067 773.3558088970346 394.2297545775496Q773.3558088970346 391.439938813372 772.2452997093524 389.0564068983465Q771.1618761116135 386.672874983321 769.2658848155704 384.74979809733446L769.2658848155704 384.74979809733446Q765.1488751441627 380.65987401587023 760.4901536738857 380.65987401587023L760.4901536738857 380.65987401587023Q750.7935124741227 380.65987401587023 737.0611183727825 382.2037526426481L737.0611183727825 382.2037526426481L725.4414002870332 402.65337304996933Q703.1770453534992 443.1463300154597 695.1597107302316 475.4052676381346L695.1597107302316 475.4052676381346Q691.9365255269585 487.9729813719055 670.7014230112766 487.9729813719055L670.7014230112766 487.9729813719055Q653.1770463178503 487.9729813719055 648.328725717969 479.79313320897705ZM804.4771517420838 454.2785074822266L804.4771517420838 454.2785074822266Q802.6895028058148 454.2785074822266 800.9289394594891 453.4117686040355Q799.1683761131633 452.57211531578787 797.6244974863855 450.64903842980135L797.6244974863855 450.64903842980135Q794.2929699233384 446.4778575785067 794.2929699233384 439.2189194736563L794.2929699233384 439.2189194736563Q794.2929699233384 431.52661192971027 803.5291560940623 419.9881506137913L803.5291560940623 419.9881506137913Q812.4944863653516 408.8559731470244 824.3850603505357 400.7573817539263L824.3850603505357 400.7573817539263Q837.1423732139108 392.00873620218493 846.2973026148043 392.00873620218493L846.2973026148043 392.00873620218493Q854.3958940079024 392.00873620218493 857.2398809519668 396.55911531268816L857.2398809519668 396.55911531268816L858.567074859197 398.67179132827897Q860.110953485975 401.0553232433045 861.6277465228093 401.0553232433045Q863.1445395596438 401.0553232433045 866.3948103528603 400.7573817539263L866.3948103528603 400.7573817539263L879.9105197346528 399.8093861059048Q883.0524481680955 399.5114446165266 884.8671826943082 399.5114446165266Q886.6548316305773 399.5114446165266 888.9841923657159 400.81155293381323Q891.340638690798 402.0845756611564 893.128287627067 404.1972516767472L893.128287627067 404.1972516767472Q897.1369549387009 408.9372299168548 897.1369549387009 414.6522893949273L897.1369549387009 414.6522893949273Q897.1369549387009 420.5569480026042 884.0817005859476 433.233004096149L884.0817005859476 433.233004096149L877.797843719062 439.51686096303445Q871.0535318231375 446.4778575785067 871.0535318231375 448.26550651477584Q871.0535318231375 450.0802410409885 872.7599239895762 451.46160612810553Q874.466316156015 452.8429712152226 876.4706498118319 452.8429712152226Q878.4749834676488 452.8429712152226 880.9939433323916 451.75954761748375Q883.5129031971346 450.64903842980135 887.2236290193903 448.5092768242671Q890.9614404315894 446.36951521873283 895.701418671697 443.335929145064L895.701418671697 443.335929145064Q908.7566730244503 434.7497971329834 913.1445385952927 431.52661192971027L913.1445385952927 431.52661192971027L921.0535308587864 425.89280922146816Q929.1250366619411 420.1777497433956 932.564906584762 420.1777497433956Q935.9776909176396 420.1777497433956 938.1716237030607 421.66745719028654Q940.3655564884818 423.130079047234 940.3655564884818 426.75954809965924Q940.3655564884818 430.361931562141 936.6548306662262 436.45618929942214Q932.9441048439708 442.5504470367033 928.6104104530152 447.0466549673196Q924.2767160620597 451.5157773079925 920.1867919805954 455.334845490022Q916.0968678991312 459.12682808210803 910.5172363707759 463.56886483283745Q904.9376048424208 467.9838159936233 898.1932929464963 472.5071095141831Q891.4218954606283 477.03040303474296 883.8921014563432 480.65987208716814L883.8921014563432 480.65987208716814Q866.8552653818995 488.94806260987053 852.5811594816898 488.94806260987053L852.5811594816898 488.94806260987053Q831.7252552252164 488.94806260987053 827.1477905247698 478.1679978123687L827.1477905247698 478.1679978123687Q825.7122542577658 474.94481260909555 825.7122542577658 470.9361452974618Q825.7122542577658 466.9274779858279 827.2561328845436 462.3229276954377Q828.7729259213781 457.691291815104 831.237714606234 453.1409127046008L831.237714606234 453.1409127046008Q836.1943775658892 444.0943256634812 842.9657750517572 437.13332904800893L842.9657750517572 437.13332904800893Q848.6808345298298 431.1474136705017 848.6808345298298 429.9827333029324L848.6808345298298 429.9827333029324Q848.6808345298298 428.19508436666325 846.6223296941259 427.70754374768075Q844.5638248584221 427.22000312869824 840.5822431367317 427.22000312869824L840.5822431367317 427.22000312869824Q838.8758509702932 427.22000312869824 833.242048262051 432.17666608835356L833.242048262051 432.17666608835356L823.9246053214965 440.76279810043417Q809.0546164425307 454.2785074822266 804.4771517420838 454.2785074822266ZM1039.2008741922104 437.8104687965957L1039.2008741922104 437.8104687965957Q1039.2008741922104 447.4258532265282 1047.6786638445174 447.4258532265282L1047.6786638445174 447.4258532265282Q1056.1564534968238 447.4258532265282 1077.0123577532972 431.1474136705017L1077.0123577532972 431.1474136705017L1085.3818050458303 424.26767382485986Q1093.6699955685326 417.4150195691615 1101.1997895728177 417.4150195691615L1101.1997895728177 417.4150195691615Q1103.9625197470518 417.4150195691615 1104.8292586252428 418.9047270160524Q1105.6689119134903 420.3673488729999 1105.6689119134903 422.61545283830804Q1105.6689119134903 424.86355680361623 1104.8563442151863 427.2741743085852Q1104.0708621068256 429.7118774034977 1102.6353258398217 432.3662652179579L1102.6353258398217 432.3662652179579Q1099.4933974063788 438.37926618540865 1096.5410681025405 441.7107937484557Q1093.5887387987023 445.0423213115027 1089.6342426669553 448.61761918404096Q1085.6797465352083 452.1658314666358 1080.262628546514 456.6078682173652Q1074.8184249678761 461.0228193781511 1068.2637122015558 465.65445525848475Q1061.6819138452925 470.259005548875 1055.0188587191983 474.07807373090446L1055.0188587191983 474.07807373090446Q1039.9863563005715 482.85380487258936 1030.2626295108648 482.85380487258936L1030.2626295108648 482.85380487258936Q1018.6429114251155 482.85380487258936 1012.0611130688517 474.6468711197174L1012.0611130688517 474.6468711197174Q1005.8855985617402 467.03582034560185 1005.127202043323 454.2785074822266L1005.127202043323 454.2785074822266Q987.9820236091055 471.88414094548324 968.8325115190707 481.41826860558535L968.8325115190707 481.41826860558535Q957.131536663491 487.21458485348836 949.0329452703929 487.21458485348836Q940.9343538772948 487.21458485348836 934.8400961400137 485.26442237755833Q928.7458384027325 483.3142599016284 924.1954592922293 479.4139349497685L924.1954592922293 479.4139349497685Q914.2821333729185 471.1257444270661 914.2821333729185 456.36409790787394L914.2821333729185 456.36409790787394Q914.2821333729185 435.2373377519659 929.4229781513193 415.6002850429489L929.4229781513193 415.6002850429489Q934.1900419813703 409.5060273056677 940.0947005890473 404.95564819516443L940.0947005890473 404.95564819516443Q952.8520134524224 396.9383135718968 967.126119352632 396.9383135718968L967.126119352632 396.9383135718968Q973.4099762195176 396.9383135718968 976.0914496239213 400.8657241137002L976.0914496239213 400.8657241137002Q977.1207020417733 402.3825171505346 977.1207020417733 404.7931346555036Q977.1207020417733 407.2308377504161 975.7393369546562 410.42693736374576Q974.3579718675389 413.6230369770754 972.3536382117222 417.0899924898398Q970.3763901458487 420.5569480026042 967.9386870509363 424.26767382485986Q965.5009839560239 428.00548523705896 963.4966503002067 431.52661192971027L963.4966503002067 431.52661192971027Q958.7566720600992 439.8960592222431 958.7566720600992 443.55261386461177Q958.7566720600992 447.2362540969239 960.8422624857467 448.94264626336263Q962.927852911394 450.64903842980135 965.9885245750063 450.64903842980135L965.9885245750063 450.64903842980135Q972.7328364709308 450.64903842980135 977.4999003009818 447.3716820466413Q982.2669641310329 444.0943256634812 986.9256856013099 439.78771686246915L986.9256856013099 439.78771686246915L995.8910158725992 431.0390713107278L1004.5584046545102 422.1008266293821Q1013.7945908252341 412.6750413290539 1018.5887402452286 410.3185950039719Q1023.4099752551665 407.9892342688333 1025.6039080405876 408.55803165764615Q1027.7978408260092 409.1268290464591 1030.0730303812607 410.61653649335005Q1032.3482199365121 412.0791583502975 1034.5421527219337 414.1918343658883L1034.5421527219337 414.1918343658883Q1039.688414811193 419.1484973255437 1040.257212200006 423.130079047234L1040.257212200006 423.130079047234Q1040.4468113296102 425.7032100918638 1039.8238427609103 430.79530100123657Q1039.2008741922104 435.8873919106092 1039.2008741922104 437.8104687965957ZM1190.1488669471792 420.4756912327738L1190.1488669471792 420.4756912327738Q1199.4663098877331 420.4756912327738 1199.4663098877331 426.94914722926353L1199.4663098877331 426.94914722926353Q1199.4663098877331 433.1246617363751 1190.7176643359921 442.92964529591194L1190.7176643359921 442.92964529591194L1186.0318572757715 447.80505148573684Q1177.581153213408 456.4724402676478 1166.2864622069806 464.8418875601806Q1154.9917712005526 473.2113348527134 1146.4327247784154 478.08674104253834L1146.4327247784154 478.08674104253834Q1126.5248161699637 489.1376617394748 1110.354718973711 489.1376617394748L1110.354718973711 489.1376617394748Q1095.1055318355366 489.1376617394748 1085.4901474056041 479.98273233858134L1085.4901474056041 479.98273233858134Q1077.2019568829014 472.0737400750876 1077.2019568829014 463.3250945233462Q1077.2019568829014 454.5493633816613 1078.9083490493404 445.8819745997503Q1080.6418268057228 437.2416714077828 1083.4045569799569 428.95348088508047L1083.4045569799569 428.95348088508047Q1088.930017328425 412.0791583502975 1095.484730094745 400.2698411349438L1095.484730094745 400.2698411349438Q1097.1911222611839 397.04665593167067 1097.1911222611839 396.09866028364917L1097.1911222611839 396.09866028364917L1084.9213500167912 396.09866028364917Q1077.960353401319 396.09866028364917 1074.1683708092328 392.84838949043257Q1070.349302627203 389.6252042871594 1070.349302627203 385.5352802056952Q1070.349302627203 381.41827053428744 1071.8660956640379 379.5222792382444Q1073.4099742908156 377.6262879422014 1075.685163846067 376.7595490640103L1075.685163846067 376.7595490640103Q1078.9083490493404 375.43235515678015 1085.1922059162257 375.43235515678015L1085.1922059162257 375.43235515678015L1108.5399844474987 375.51361192661057Q1109.2983809659158 375.24275602717586 1111.5735705211673 371.42368784514633L1111.5735705211673 371.42368784514633L1117.396972359014 361.4291051560052Q1121.1076981812694 354.7660500299112 1124.8725951834122 351.62412159646846Q1128.6374921855545 348.4821931630257 1133.7295830949274 348.4821931630257Q1138.8216740043 348.4821931630257 1142.2886295170642 349.43018881104723Q1145.7555850298286 350.37818445906873 1148.1391169448543 351.81372072607275L1148.1391169448543 351.81372072607275Q1152.824924005075 354.87439238968506 1152.824924005075 358.47677585216684L1152.824924005075 358.47677585216684Q1152.824924005075 359.9935688890012 1151.7685859972794 362.566699933631L1151.7685859972794 362.566699933631L1146.4327247784154 375.51361192661057L1191.6656599840135 375.43235515678015Q1197.5703185916905 375.43235515678015 1197.5703185916905 381.5266128940613L1197.5703185916905 381.5266128940613Q1197.5703185916905 395.9903179238753 1171.7577513755618 395.9903179238753L1171.7577513755618 395.9903179238753L1136.8985971183133 396.09866028364917Q1135.7610023406878 396.6674576724621 1132.9982721664537 401.6241206321174L1132.9982721664537 401.6241206321174L1128.7187489553849 409.5060273056677Q1127.0936135587767 412.4583566095061 1126.4435594001334 414.00223523628404L1126.4435594001334 414.00223523628404L1124.3308833845426 418.6609567065612Q1117.965769747827 433.0434049665447 1117.965769747827 439.4085186032606Q1117.965769747827 445.8007178299199 1121.351468490761 450.0802410409885Q1124.710081643751 454.359764252057 1130.3438843519934 454.359764252057Q1135.950601470292 454.359764252057 1141.340633869043 452.1658314666358Q1146.7306662677938 449.99898427115806 1151.8498427671097 446.85705583771534L1151.8498427671097 446.85705583771534Q1161.1943712976076 441.03365399986893 1166.5302325164716 436.07699104021356Q1171.8660937353357 431.1474136705017 1175.387220427987 428.57428262587183L1175.387220427987 428.57428262587183Q1175.387220427987 428.57428262587183 1182.050275554081 423.8884755656512L1182.050275554081 423.8884755656512Q1187.1965376433404 420.4756912327738 1190.1488669471792 420.4756912327738ZM1221.5681512816063 424.07807469525557L1221.5681512816063 424.07807469525557Q1221.5681512816063 427.51794461807646 1224.1412823262363 427.51794461807646L1224.1412823262363 427.51794461807646Q1227.2832107596787 427.51794461807646 1232.2398737193344 423.3196781768383L1232.2398737193344 423.3196781768383L1240.5009786520932 416.1961680217052Q1253.6645753646203 404.84730583539056 1265.5551493498047 404.84730583539056L1265.5551493498047 404.84730583539056Q1273.274542483694 404.84730583539056 1279.2604578612013 417.71296105853963L1279.2604578612013 417.71296105853963Q1284.515062310235 428.7638817554762 1288.6862431615295 450.64903842980135L1288.6862431615295 450.64903842980135Q1289.4446396799467 454.2785074822266 1289.9863514788162 454.2785074822266Q1290.5009776877423 454.2785074822266 1292.7490816530503 452.57211531578787Q1294.970100028415 450.8386375594057 1298.2203708216316 448.1842497449455L1298.2203708216316 448.1842497449455Q1321.5410637629607 428.27634113649367 1325.224703995273 425.9469804013551Q1328.8812586376416 423.6176196662165 1330.3167949046456 422.80505196791233Q1331.725245581706 421.9924842696082 1333.2691242084838 421.3153445210214L1333.2691242084838 421.3153445210214Q1337.06110680057 419.90689384396086 1339.2550395859912 419.90689384396086L1339.2550395859912 419.90689384396086Q1343.4533060272292 419.90689384396086 1343.4533060272292 424.26767382485986L1343.4533060272292 424.26767382485986Q1343.4533060272292 430.95781454089735 1334.6775748855443 443.7151274042726L1334.6775748855443 443.7151274042726Q1324.8725913260078 457.98923330448224 1308.702494129755 472.18208243486146L1308.702494129755 472.18208243486146Q1289.8509235290985 488.8397202500966 1275.73933116855 488.8397202500966L1275.73933116855 488.8397202500966Q1260.8964278795274 488.8397202500966 1255.7501657902676 468.85055487181444L1255.7501657902676 468.85055487181444Q1254.4229718830375 463.7042927825548 1253.6645753646203 459.23517044188196L1253.6645753646203 459.23517044188196L1252.2290390976164 451.7866332074272Q1251.6602417088034 448.83430390358876 1250.7393316507255 448.83430390358876Q1249.845507182591 448.83430390358876 1246.9744346485827 451.7053764375968L1246.9744346485827 451.7053764375968L1239.9321812632802 458.8559721826734Q1228.1228640479267 470.8548885276313 1220.1326150146024 476.35326328615616L1220.1326150146024 476.35326328615616Q1204.04377458818 487.59378311269694 1191.936515883448 487.59378311269694L1191.936515883448 487.59378311269694Q1177.4728108536342 487.59378311269694 1174.8996798090043 472.94047895327867L1174.8996798090043 472.94047895327867Q1174.1412832905871 468.5526133824363 1174.1412832905871 461.8353870764552Q1174.1412832905871 455.1181607704742 1176.0372745866302 445.4215195707113Q1177.9603514726168 435.6977927810049 1181.291879035664 426.001151581242L1181.291879035664 426.001151581242Q1188.5237315505706 405.22650409459914 1199.276710758129 390.5731999351809L1199.276710758129 390.5731999351809L1207.7545004104359 379.3326801086401Q1238.5237305862197 339.13766463252796 1259.162950123145 339.13766463252796L1259.162950123145 339.13766463252796Q1263.8487571833657 339.13766463252796 1265.934347609013 343.71512933297464L1265.934347609013 343.71512933297464Q1266.6114873575998 345.1506655999787 1266.6114873575998 347.9946525440432Q1266.6114873575998 350.86572507805124 1264.1196130828007 355.389018598611Q1261.6548243979446 359.91231211917085 1258.0253553455195 364.76063271905224Q1254.4229718830375 369.60895331893374 1250.2788766216863 374.619787458476Q1246.1347813603352 379.6306215980183 1242.6949114375143 384.47894219789976L1242.6949114375143 384.47894219789976L1235.5714012823814 394.85272314624945Q1221.5681512816063 415.89822653232704 1221.5681512816063 424.07807469525557ZM1450.712242203378 456.6078682173652Q1446.3785478124223 458.93722895250374 1440.961429823728 460.4269363993947Q1435.5172262450901 461.8895582563422 1427.7707475212574 461.8895582563422Q1419.9971832074807 461.8895582563422 1410.760997036757 456.55369703747823L1410.760997036757 456.55369703747823Q1396.7848326259254 468.85055487181444 1385.5443127993844 475.5948667677389L1385.5443127993844 475.5948667677389Q1365.826003320537 487.40418398309265 1358.5941508056303 487.40418398309265L1358.5941508056303 487.40418398309265Q1346.1076938416895 487.40418398309265 1338.6049854273479 483.3142599016284L1338.6049854273479 483.3142599016284Q1320.8910096043173 473.3196772124873 1320.8910096043173 444.1755824333116L1320.8910096043173 444.1755824333116Q1320.8910096043173 427.03040399909395 1330.3167949046456 412.0791583502975L1330.3167949046456 412.0791583502975Q1337.06110680057 401.3261791427392 1348.2203698572803 396.6674576724621L1348.2203698572803 396.6674576724621Q1353.8270869755793 394.2839257574365 1358.8650067050648 394.2839257574365Q1363.9300120244943 394.2839257574365 1367.2073684076545 394.7985519663625Q1370.4847247908142 395.34026376523195 1373.2474549650483 396.3695161830839L1373.2474549650483 396.3695161830839Q1379.639654191708 398.7530480981094 1379.639654191708 402.46377392036504L1379.639654191708 402.46377392036504Q1379.639654191708 406.85163949120744 1376.5789825280954 410.8603068028413Q1373.5453964544267 414.84188852453167 1371.2431213092314 417.33376279933105L1371.2431213092314 417.33376279933105L1366.8823413283326 422.1008266293821Q1361.5464801094686 427.70754374768075 1360.3005429720688 430.1723324325367L1360.3005429720688 430.1723324325367Q1358.4045516760261 434.09974297434013 1358.4045516760261 438.8126356245042Q1358.4045516760261 443.52552827466826 1359.2442049642736 446.3153440388459Q1360.1109438424646 449.1322453929669 1361.5464801094686 451.4074349482186L1361.5464801094686 451.4074349482186Q1364.5800661831372 456.55369703747823 1367.72199461658 456.55369703747823L1367.72199461658 456.55369703747823Q1372.1098601874228 456.55369703747823 1386.3027093178016 443.60678504449874L1386.3027093178016 443.60678504449874Q1386.3027093178016 443.60678504449874 1394.6721566103347 435.8873919106092L1394.6721566103347 435.8873919106092Q1394.292958351126 433.9914006145662 1394.292958351126 431.6078686995407Q1394.292958351126 429.2243367845152 1395.620152258356 425.81155245163774Q1396.9744317555296 422.3716825288168 1399.3037924906685 418.55261434678727Q1401.6331532258068 414.76063175470125 1404.8292528391366 410.9415635726717Q1407.998266862523 407.14958098058565 1411.627735914948 404.0076525471429L1411.627735914948 404.0076525471429Q1419.7263273080462 397.1279127015011 1426.9581798229533 397.1279127015011L1426.9581798229533 397.1279127015011Q1439.823835046102 397.1279127015011 1439.823835046102 410.5623653134631L1439.823835046102 410.5623653134631Q1439.823835046102 418.95889819593935 1435.056771216051 428.465940266098L1435.056771216051 428.465940266098Q1435.056771216051 431.9870669587493 1438.8487538081372 434.37059887377484L1438.8487538081372 434.37059887377484Q1440.0134341757066 435.12899539219205 1441.6656551622582 435.12899539219205Q1443.3449617387537 435.12899539219205 1445.5388945241748 433.8018014849619Q1447.7057417196525 432.4746075777318 1449.8996745050736 430.6598730515192L1449.8996745050736 430.6598730515192L1453.9895985865378 427.1387463588678Q1465.3384607728526 416.84622218034855 1471.5139752799641 416.84622218034855L1471.5139752799641 416.84622218034855Q1474.385047813972 416.84622218034855 1476.1997823401848 418.55261434678727L1476.1997823401848 418.55261434678727Q1479.422967543458 421.5049436506257 1479.422967543458 423.0488222774036Q1479.422967543458 424.565615314238 1478.6645710250405 426.1907507108463Q1477.9061745066238 427.7888005175112 1476.660237369224 429.847305353215Q1475.4143002318242 431.9058101889189 1473.816250425159 434.09974297434013L1473.816250425159 434.09974297434013Q1467.2344520688957 443.0379876556858 1464.607149844379 445.746546650033Q1462.0069332098055 448.4551056443802 1458.5128921070977 451.3803493582751Q1455.0459365943334 454.2785074822266 1450.712242203378 456.6078682173652ZM1540.1759457866651 375.56778310649753Q1537.413215612431 377.89714384163614 1534.1900304091578 379.38685128852705Q1530.9397596159415 380.8494731454745 1526.9310923043076 380.8494731454745Q1522.9495105826172 380.8494731454745 1519.2387847603618 379.5222792382444Q1515.528058938106 378.1950853310143 1512.7653287638714 375.8115534159888L1512.7653287638714 375.8115534159888Q1506.752327796421 370.6652913267291 1506.752327796421 362.67504229340494L1506.752327796421 362.67504229340494Q1506.752327796421 350.37818445906873 1527.310290563516 344.39226908156144L1527.310290563516 344.39226908156144Q1534.2712871789881 342.2795930659707 1538.7404095196612 342.2795930659707Q1543.2366174502772 342.2795930659707 1545.4576358256422 343.28175989387915Q1547.7057397909502 344.2839267217876 1549.1412760579542 345.90906211839587L1549.1412760579542 345.90906211839587Q1551.9852630020187 349.1593329116125 1551.9852630020187 352.517946064603Q1551.9852630020187 355.903644807537 1551.1726953037146 358.6663749817711Q1550.3601276054105 361.4291051560052 1548.8433345685762 364.38143445984366Q1547.326541531742 367.3337637636821 1545.1326087463208 370.28609306752054Q1542.9386759608992 373.2384223713589 1540.1759457866651 375.56778310649753ZM1516.1781130967493 480.4161017776769Q1508.9462605818421 484.1809987798195 1502.0936063261438 486.4020171551842Q1495.2409520704455 488.6501211204923 1488.6049825342948 488.6501211204923Q1481.996098588088 488.6501211204923 1474.8996740228981 485.4540215071626Q1467.8032494577087 482.25792189383293 1462.2777891092405 476.9491462649125L1462.2777891092405 476.9491462649125Q1450.0080168648474 465.0314866897849 1450.0080168648474 450.45943930019706L1450.0080168648474 450.45943930019706Q1450.0080168648474 437.0520722781785 1457.9982658981717 423.23842140700793L1457.9982658981717 423.23842140700793Q1465.3384607728526 410.7519644430674 1476.660237369224 402.27417479076075L1476.660237369224 402.27417479076075Q1488.0090995555383 393.79638513845407 1497.7057407553011 393.79638513845407L1497.7057407553011 393.79638513845407Q1511.6006483963024 393.79638513845407 1512.5757296342672 401.6241206321174L1512.5757296342672 401.6241206321174Q1512.8465855337022 404.0076525471429 1512.8465855337022 407.14958098058565Q1512.8465855337022 410.2915094140284 1511.3839636767548 414.32726231560565Q1509.894256229864 418.363015217183 1507.564895494725 422.42585370870376Q1505.2355347595867 426.461606610281 1502.4186334054652 430.3348459721975Q1499.6017320513442 434.18099974417055 1497.0556865966582 437.3229281776133L1497.0556865966582 437.3229281776133Q1492.0990236370026 443.335929145064 1489.1466943331643 445.99031695952425L1489.1466943331643 445.99031695952425Q1489.1466943331643 449.24058775274085 1493.9950149330457 452.6533720856183L1493.9950149330457 452.6533720856183Q1498.5724796334925 455.9036428788349 1501.7685792468224 455.9036428788349Q1504.9375932702083 455.9036428788349 1509.271287661164 454.359764252057Q1513.6049820521193 452.8429712152226 1518.236617932453 450.2698401705928Q1522.8411682228434 447.69670912596297 1527.6624032327813 444.3651815629159Q1532.4565526527758 441.03365399986893 1537.1423597129965 437.51252730721757L1537.1423597129965 437.51252730721757L1554.5583940466486 423.8884755656512Q1564.9321749949986 416.38576715130955 1571.4056309914881 416.38576715130955L1571.4056309914881 416.38576715130955Q1573.978762036118 416.38576715130955 1575.360127123235 418.2275872674656Q1576.7414922103521 420.09649297356515 1576.7414922103521 422.56128165842114Q1576.7414922103521 425.0531559332205 1574.276703525496 429.386850324176Q1571.784829250697 433.69345912518804 1567.4511348597412 438.9480635742215Q1563.1174404687858 444.1755824333116 1557.3211242208831 449.8906419113842Q1551.4977223830365 455.6057013894567 1544.753410487112 461.13116173792497Q1537.982013001244 466.6566220863932 1530.69598930645 471.64037063599204Q1523.409965611656 476.65120477553427 1516.1781130967493 480.4161017776769Z " fill="#66bfbf" transform="matrix(0.5549419302550694,0,0,0.5549419302550695,0,70.17763116749781)"/></g></svg>